<?xml version="1.0" encoding="utf-8"?>
<!-- Generator: Adobe Illustrator 23.0.3, SVG Export Plug-In . SVG Version: 6.00 Build 0)  -->
<svg version="1.1" id="Layer_1" xmlns="http://www.w3.org/2000/svg" xmlns:xlink="http://www.w3.org/1999/xlink" x="0px" y="0px"
	 viewBox="0 0 512 512" style="enable-background:new 0 0 512 512;" xml:space="preserve">
<style type="text/css">
	.st0{fill:#00E6B2;}
	.st1{fill:#FF18A4;}
	.st2{fill:#5B25B9;}
</style>
<g>
	<circle class="st0" cx="381.5" cy="134" r="72.5"/>
	<circle class="st1" cx="141" cy="206.5" r="75.4"/>
	<circle class="st2" cx="171.7" cy="412" r="37.7"/>
</g>
<path d="M104,112v48c0,4.4,3.6,8,8,8h48c4.4,0,8-3.6,8-8v-48c0-4.4-3.6-8-8-8h-48C107.6,104,104,107.6,104,112z M120,120h32v32h-32
	V120z"/>
<path d="M104,256c0,4.4,3.6,8,8,8h48c4.4,0,8-3.6,8-8c0-4.4-3.6-8-8-8h-48C107.6,248,104,251.6,104,256z"/>
<circle cx="96" cy="56" r="8"/>
<circle cx="128" cy="56" r="8"/>
<path d="M208,408c-13.3,0-24,10.7-24,24s10.7,24,24,24h56c13.3,0,24-10.7,24-24s-10.7-24-24-24H208z M272,432c0,4.4-3.6,8-8,8h-56
	c-4.4,0-8-3.6-8-8s3.6-8,8-8h56C268.4,424,272,427.6,272,432z"/>
<path d="M112,360h48c4.4,0,8-3.6,8-8v-48c0-4.4-3.6-8-8-8h-48c-4.4,0-8,3.6-8,8v48C104,356.4,107.6,360,112,360z M120,312h32v32h-32
	V312z"/>
<path d="M184,160c0,4.4,3.6,8,8,8h112c4.4,0,8-3.6,8-8s-3.6-8-8-8H192C187.6,152,184,155.6,184,160z"/>
<path d="M320,256c0-4.4-3.6-8-8-8H192c-4.4,0-8,3.6-8,8c0,4.4,3.6,8,8,8h120C316.4,264,320,260.4,320,256z"/>
<path d="M296,352c0-4.4-3.6-8-8-8h-96c-4.4,0-8,3.6-8,8s3.6,8,8,8h96C292.4,360,296,356.4,296,352z"/>
<path d="M197.2,198.1c3.4-2.9,3.8-7.9,0.9-11.3s-7.9-3.8-11.3-0.9l0,0l-49.5,42.5l-18.9-25.2c-2.7-3.5-7.7-4.3-11.2-1.6
	c-3.5,2.7-4.3,7.7-1.6,11.2l24,32c1.3,1.8,3.3,2.9,5.5,3.1h0.9c1.9,0,3.8-0.7,5.2-1.9L197.2,198.1z"/>
<path d="M256,136c4.4,0,8-3.6,8-8c0-4.4-3.6-8-8-8h-48c-4.4,0-8,3.6-8,8c0,4.4,3.6,8,8,8H256z"/>
<path d="M208,216c-4.4,0-8,3.6-8,8s3.6,8,8,8h48c4.4,0,8-3.6,8-8s-3.6-8-8-8H208z"/>
<path d="M475.8,83.3c-11.4-6.8-26.1-3.2-33.1,8L324.2,281.8c-0.7,1.1-1.1,2.4-1.2,3.8l-3,53.5c-0.2,3,1.4,5.9,4,7.4
	c1.2,0.7,2.6,1,4,1c1.6,0,3.1-0.4,4.4-1.3l44.7-29.6c1.1-0.7,2.1-1.7,2.7-2.9l75.4-141.2c2.1-3.9,0.6-8.8-3.3-10.9
	s-8.8-0.6-10.9,3.3l-74.6,139.4l-29.8,19.7l2.2-35.6L456,100c2.4-4.1,7.6-5.4,11.6-3.1c4.1,2.4,5.4,7.6,3.1,11.6L456,136.8
	c-2.3,3.7-1.2,8.7,2.5,11s8.7,1.2,11-2.5c0.2-0.3,0.4-0.6,0.5-1l15.1-28.2C491.5,104.4,487.3,89.9,475.8,83.3L475.8,83.3z"/>
<path d="M64,256c4.4,0,8-3.6,8-8V48c0-8.8,7.2-16,16-16h288c8.8,0,16,7.2,16,16v71.1c0,4.4,3.6,8,8,8s8-3.6,8-8V48
	c0-17.7-14.3-32-32-32H88c-17.7,0-32,14.3-32,32v200C56,252.4,59.6,256,64,256z"/>
<path d="M400,306.6c-4.4,0-8,3.6-8,8V464c0,8.8-7.2,16-16,16H88c-8.8,0-16-7.2-16-16V280c0-4.4-3.6-8-8-8s-8,3.6-8,8v184
	c0,17.7,14.3,32,32,32h288c17.7,0,32-14.3,32-32V314.6C408,310.1,404.4,306.6,400,306.6z"/>
</svg>
