<?xml version="1.0" encoding="utf-8"?>
<!-- Generator: Adobe Illustrator 23.0.3, SVG Export Plug-In . SVG Version: 6.00 Build 0)  -->
<svg version="1.1" id="Layer_1" xmlns="http://www.w3.org/2000/svg" xmlns:xlink="http://www.w3.org/1999/xlink" x="0px" y="0px"
	 viewBox="0 0 153.6 153.6" style="enable-background:new 0 0 153.6 153.6;" xml:space="preserve">
<style type="text/css">
	.st0{fill:#3976C8;}
	.st1{fill:#66C4A3;}
	.st2{fill:#4C9AE8;}
	.st3{fill:#57B9E2;}
	.st4{fill:#E43BA0;}
	.st5{fill:#B060FF;}
	.st6{fill:#7B78EB;}
	.st7{fill:#52E3D6;}
	.st8{fill:#3F93E4;}
	.st9{fill:#F19236;}
	.st10{fill:#FF4F4F;}
	.st11{fill:#2CC6E2;}
	.st12{fill:#78D32E;}
	.st13{fill:#E23F40;}
	.st14{fill:#40A4E2;}
	.st15{fill:#37CFA0;}
	.st16{fill:#3EC1CB;}
	.st17{fill:#3FC2CC;}
	.st18{fill:#3FC2CB;}
	.st19{fill:#42C3CC;}
	.st20{fill:#40C2CC;}
	.st21{fill:#49C5CE;}
	.st22{fill:#41C2CC;}
	.st23{fill:#43C3CC;}
	.st24{fill:#42C2CC;}
	.st25{fill:#43C3CD;}
	.st26{fill:#F0F8F8;}
	.st27{fill:#F1F8F8;}
	.st28{fill:#EEF7F7;}
	.st29{fill:#EBF6F7;}
	.st30{fill:#ECF7F7;}
	.st31{fill:#E0F3F4;}
	.st32{fill:#E6F5F5;}
	.st33{fill:#E8F5F6;}
	.st34{fill:#EFF7F7;}
	.st35{fill:#3FC1CB;}
	.st36{fill:#45C4CD;}
	.st37{fill:#46C4CD;}
	.st38{fill:#44C3CD;}
	.st39{fill:#45C3CD;}
	.st40{fill:#143755;}
	.st41{fill:#DDB833;}
	.st42{fill:#E2BB3C;}
	.st43{fill:#67C7A5;}
	.st44{fill:#D573B0;}
	.st45{fill:#EF6067;}
	.st46{fill:#3BCBF2;}
	.st47{fill:#F569B0;}
	.st48{fill:#3BC6E5;}
	.st49{fill:url(#SVGID_1_);}
	.st50{fill:url(#SVGID_2_);}
	.st51{fill:url(#SVGID_3_);}
	.st52{fill:url(#SVGID_4_);}
	.st53{fill:url(#SVGID_5_);}
	.st54{fill:url(#SVGID_6_);}
	.st55{fill:url(#SVGID_7_);}
	.st56{fill:url(#SVGID_8_);}
	.st57{fill:url(#SVGID_9_);}
	.st58{fill:url(#SVGID_10_);}
	.st59{fill:url(#SVGID_11_);}
	.st60{fill:url(#SVGID_12_);}
	.st61{fill:#FFFFFF;}
	.st62{fill:url(#SVGID_13_);}
	.st63{fill:url(#SVGID_14_);}
	.st64{fill:url(#SVGID_15_);}
	.st65{fill:url(#SVGID_16_);}
	.st66{fill:url(#SVGID_17_);}
	.st67{fill:url(#SVGID_18_);}
	.st68{fill:url(#SVGID_19_);}
	.st69{fill:url(#SVGID_20_);}
	.st70{fill:url(#SVGID_21_);}
	.st71{fill:url(#SVGID_22_);}
	.st72{fill:url(#SVGID_23_);}
	.st73{fill:url(#SVGID_24_);}
	.st74{fill:url(#SVGID_25_);}
	.st75{fill:url(#SVGID_26_);}
	.st76{fill:url(#SVGID_27_);}
	.st77{fill:url(#SVGID_28_);}
	.st78{fill:url(#SVGID_29_);}
	.st79{fill:url(#SVGID_30_);}
	.st80{fill:url(#SVGID_31_);}
	.st81{fill:url(#SVGID_32_);}
	.st82{fill:url(#SVGID_33_);}
	.st83{fill:url(#SVGID_34_);}
	.st84{fill:url(#SVGID_35_);}
	.st85{fill:url(#SVGID_36_);}
	.st86{fill:url(#SVGID_37_);}
	.st87{fill:url(#SVGID_38_);}
	.st88{fill:url(#SVGID_39_);}
	.st89{fill:url(#SVGID_40_);}
	.st90{fill:url(#SVGID_41_);}
	.st91{fill:url(#SVGID_42_);}
	.st92{fill:url(#SVGID_43_);}
	.st93{fill:url(#SVGID_44_);}
	.st94{fill:url(#SVGID_45_);}
	.st95{fill:url(#SVGID_46_);}
	.st96{fill:url(#SVGID_47_);}
	.st97{fill:url(#SVGID_48_);}
	.st98{fill:url(#SVGID_49_);}
	.st99{fill:url(#SVGID_50_);}
	.st100{fill:url(#SVGID_51_);}
	.st101{fill:url(#SVGID_52_);}
	.st102{fill:url(#SVGID_53_);}
	.st103{fill:url(#SVGID_54_);}
	.st104{fill:url(#SVGID_55_);}
	.st105{fill:url(#SVGID_56_);}
	.st106{fill:url(#SVGID_57_);}
	.st107{fill:url(#SVGID_58_);}
	.st108{fill:url(#SVGID_59_);}
	.st109{fill:url(#SVGID_60_);}
	.st110{fill:url(#SVGID_61_);}
	.st111{fill:url(#SVGID_62_);}
</style>
<g>
	<g>
		<path class="st2" d="M55.4,100.4c0.1,2.6,2.2,2.4,4.1,2.4c6,0,12,0,18,0c6.3,0,12.6,0,18.9,0c1.8,0,4,0.1,4.1-2.4
			c0.1-2.5-1.9-2.6-3.9-2.6c-12.4,0-24.9,0-37.3,0C57.3,97.8,55.3,97.9,55.4,100.4z"/>
		<path class="st2" d="M96.5,110.4c-6.2,0-12.3,0-18.5,0c-6.3,0-12.6,0-18.9,0c-2,0-3.9,0.2-3.8,2.8c0.1,2.2,2,2.3,3.8,2.3
			c12.4,0,24.9,0,37.3,0c1.9,0,4,0,4-2.5C100.4,110.4,98.4,110.4,96.5,110.4z"/>
		<path class="st2" d="M58.8,90.3c6.1,0,12.2,0,18.3,0c1.7,0,3.2-0.5,3.2-2.4c0.1-2.2-1.6-2.7-3.4-2.6c-3.1,0-6.1,0-9.2,0
			c-2.9,0-5.8,0-8.7,0c-1.8,0-3.5,0.2-3.6,2.4C55.3,89.8,56.9,90.3,58.8,90.3z"/>
		<path class="st2" d="M58.9,128c-1.9,0-3.8,0.3-3.7,2.7c0.1,2.3,1.9,2.4,3.6,2.3c1.8,0,3.9,0.1,3.9-2.5
			C62.7,128.1,60.8,128,58.9,128z"/>
		<path class="st1" d="M128.3,44c0-6.5-2.7-9.1-9.2-9.1c-5.6,0-11.2-0.1-16.8,0c-2,0-3.3-0.4-4.3-2.4c-6.6-14.1-33.5-14-40.1-0.1
			c-0.9,2-2.2,2.5-4.2,2.5c-5.9-0.1-11.7-0.1-17.6,0c-5.6,0.1-8.5,2.9-8.5,8.6c0,30.3,0,60.7,0,91c0,5.9,2.8,8.7,8.8,8.7
			c27.7,0,55.3,0,83,0c6.2,0,8.9-2.7,8.9-9c0-15,0-29.9,0-44.9C128.3,74.2,128.3,59.1,128.3,44z M57,39.9c2.5,0.3,3.5-0.8,4.5-3.2
			c2.5-6.2,7.3-9.2,14-9.4c5.7-0.2,11.2-0.1,15.5,4.4c1.5,1.5,2.8,3.2,3.3,5.2c0.6,2.4,1.9,3.3,4.2,3c2.4-0.3,3.3,0.8,3.1,3.1
			c-0.1,1.4-0.2,2.8-0.1,4.2c0.2,2.2-0.7,2.9-2.9,2.8c-7-0.1-13.9,0-20.9,0c-6.6,0-13.1-0.2-19.7,0.1c-3.2,0.1-4.3-1-3.9-4
			c0.1-1,0.1-2,0-2.9C53.9,41,54.5,39.5,57,39.9z M123.2,52.5c0.1,26.7,0,53.4,0,80.2c0,5.3-0.1,5.4-5.5,5.4c-26.6,0-53.2,0-79.7,0
			c-5.3,0-5.5-0.1-5.5-5.4c0-14.5,0-29.1,0-43.6c0-14.7,0.1-29.4-0.1-44.1c0-3.8,1.1-5.5,5-5.1c2.8,0.2,5.6,0.2,8.4,0
			c2.2-0.2,2.9,0.8,3.1,2.8c0.2,2.6-1.5,2.2-3,2.2c-8.4,0.3-8.4,0.3-8.4,8.6c0,24.9,0.1,49.8-0.1,74.7c0,4.2,1.2,5.4,5.1,4.9
			c1.9-0.3,3.9-0.1,5.9,0c1.7,0,2.8-0.8,3-2.3c0.1-1.6-1-2.5-2.6-2.7c-1.9-0.3-4.4,0.9-5.6-0.6c-1.5-1.8-0.6-4.6-0.6-6.9
			c0-22.2,0-44.5,0-66.7c0-1.5-1-3.9,2.2-3.9c2.2,0,4.3-0.2,4.2,3c-0.1,2,1.3,2.1,2.8,2.1c17.3,0,34.7,0,52,0c1.8,0,3-0.4,2.9-2.5
			c-0.1-3.1,2.2-2.5,4.1-2.6c2.8-0.1,2.2,1.9,2.2,3.4c0,23.6,0,47.3,0.1,70.9c0,2.9-0.8,3.8-3.7,3.8c-10.8-0.2-21.5-0.1-32.3-0.1
			c-1,0-2,0-2.9,0c-1.8,0-3,0.7-3,2.7c0.1,1.7,1.3,2.3,2.9,2.3c14,0,28,0,42,0c2.1,0,2.1-1.3,2.1-2.8c0-4.6,0-9.2,0-13.8
			c0-22.4-0.1-44.8,0.1-67.1c0-3.4-0.7-5-4.3-4.4c-1.5,0.2-3.1,0-4.6,0c-1.6,0-2.8-0.1-2.5-2.2c0.2-1.7,0.4-3.1,2.6-2.8
			c0.1,0,0.3,0,0.4,0C125.9,40.2,123.1,37.5,123.2,52.5z"/>
	</g>
</g>
</svg>
