<?xml version="1.0" encoding="iso-8859-1"?>
<!-- Generator: Adobe Illustrator 18.0.0, SVG Export Plug-In . SVG Version: 6.00 Build 0)  -->
<!DOCTYPE svg PUBLIC "-//W3C//DTD SVG 1.1//EN" "http://www.w3.org/Graphics/SVG/1.1/DTD/svg11.dtd">
<svg version="1.1" id="Capa_1" xmlns="http://www.w3.org/2000/svg" xmlns:xlink="http://www.w3.org/1999/xlink" x="0px" y="0px"
	 viewBox="0 0 471 471" style="enable-background:new 0 0 471 471;" xml:space="preserve">
<g>
	<path d="M357.572,70H317V44c0-5.523-4.477-10-10-10h-29.293C273.483,14.584,256.163,0,235.5,0s-37.983,14.584-42.207,34H164
		c-5.523,0-10,4.477-10,10v26h-40.572C96.925,70,83.5,83.425,83.5,99.928v341.145C83.5,457.575,96.925,471,113.428,471h244.145
		c16.502,0,29.928-13.425,29.928-29.928V99.928C387.5,83.425,374.075,70,357.572,70z M174,54h28.309c5.523,0,10-4.477,10-10v-0.809
		C212.309,30.404,222.712,20,235.5,20c12.788,0,23.191,10.404,23.191,23.191V44c0,5.523,4.477,10,10,10H297v59H174V54z M307,133
		c5.354,0,9.713-4.211,9.975-9.5H334v294H137v-294h17.025c0.262,5.289,4.621,9.5,9.975,9.5H307z M367.5,441.072
		c0,5.474-4.454,9.928-9.928,9.928H113.428c-5.474,0-9.928-4.454-9.928-9.928V99.928c0-5.474,4.454-9.928,9.928-9.928H154v13.5h-27
		c-5.523,0-10,4.477-10,10v314c0,5.523,4.477,10,10,10h217c5.523,0,10-4.477,10-10v-314c0-5.523-4.477-10-10-10h-27V90h40.572
		c5.474,0,9.928,4.454,9.928,9.928V441.072z"/>
	<path d="M153.5,197c0,5.523,4.477,10,10,10h75c5.523,0,10-4.477,10-10s-4.477-10-10-10h-75C157.977,187,153.5,191.477,153.5,197z"
		/>
	<path d="M238.5,258.5h-75c-5.523,0-10,4.477-10,10s4.477,10,10,10h75c5.523,0,10-4.477,10-10S244.023,258.5,238.5,258.5z"/>
	<path d="M238.5,330h-75c-5.523,0-10,4.477-10,10s4.477,10,10,10h75c5.523,0,10-4.477,10-10S244.023,330,238.5,330z"/>
	<path d="M268,70h-65c-5.523,0-10,4.477-10,10s4.477,10,10,10h65c5.523,0,10-4.477,10-10S273.523,70,268,70z"/>
	<path d="M277.787,204.071c1.953,1.953,4.512,2.929,7.071,2.929c2.559,0,5.119-0.977,7.071-2.929l28.285-28.284
		c3.905-3.905,3.906-10.237,0-14.142c-3.905-3.906-10.237-3.905-14.142,0l-21.214,21.213l-7.107-7.108
		c-3.905-3.905-10.237-3.905-14.143,0s-3.905,10.237,0,14.143L277.787,204.071z"/>
	<path d="M277.787,275.571c1.953,1.953,4.512,2.929,7.071,2.929c2.559,0,5.119-0.977,7.071-2.929l28.285-28.284
		c3.905-3.905,3.906-10.237,0-14.142c-3.905-3.906-10.237-3.905-14.142,0l-21.214,21.213l-7.107-7.108
		c-3.905-3.905-10.237-3.905-14.143,0s-3.905,10.237,0,14.143L277.787,275.571z"/>
</g>
<g>
</g>
<g>
</g>
<g>
</g>
<g>
</g>
<g>
</g>
<g>
</g>
<g>
</g>
<g>
</g>
<g>
</g>
<g>
</g>
<g>
</g>
<g>
</g>
<g>
</g>
<g>
</g>
<g>
</g>
</svg>
