<svg height="512" viewBox="0 0 64 64" width="512" xmlns="http://www.w3.org/2000/svg"><g id="Twotone"><g id="Color_copy_2" data-name="Color copy 2"><g fill="#cff09e"><path d="m52.677 46.916a2 2 0 0 1 -2.463 2.923 25.489 25.489 0 0 1 -43.7-17.148 9.314 9.314 0 0 0 -3.514-.691 28.995 28.995 0 0 0 48 21.9v2.1a5 5 0 0 0 5 5l3-20-3.336.5a25.473 25.473 0 0 1 -2.987 5.416z"/><path d="m20 15h-.29a20.989 20.989 0 0 1 32.2 10.305 9.813 9.813 0 0 0 5.574 6 25.489 25.489 0 0 0 -43.7-17.148 2 2 0 1 1 -2.463 2.923 25.473 25.473 0 0 0 -2.985 5.42l16.664-2.5a5 5 0 0 0 -5-5z"/></g></g><g id="Stroke_Close_copy" data-name="Stroke Close copy"><g fill="#3b8686"><g><path d="m56 62a6.006 6.006 0 0 1 -6-6v-.008a30 30 0 0 1 -48-23.992 1 1 0 0 1 1-1 10.66 10.66 0 0 1 10.039 7.377 19.993 19.993 0 0 0 28.589 11.135 6.011 6.011 0 0 1 -3.628-5.512 1 1 0 0 1 .852-.989l20-3a1 1 0 0 1 1.137 1.137l-3 20a1 1 0 0 1 -.989.852zm-51.98-28.937a27.994 27.994 0 0 0 46.324 20.081 1 1 0 0 1 1.656.756v2.1a4.006 4.006 0 0 0 3.152 3.909l2.659-17.72-17.721 2.659a4.008 4.008 0 0 0 3.91 3.152h.29a1 1 0 0 1 .586 1.81 21.988 21.988 0 0 1 -33.733-10.8 8.711 8.711 0 0 0 -7.123-5.947z"/><path d="m61 33a10.66 10.66 0 0 1 -10.039-7.377 19.993 19.993 0 0 0 -28.589-11.135 6.011 6.011 0 0 1 3.628 5.512 1 1 0 0 1 -.852.989l-20 3a1 1 0 0 1 -1.137-1.137l3-20a1 1 0 0 1 .989-.852 6.006 6.006 0 0 1 6 6v.008a30 30 0 0 1 48 23.992 1 1 0 0 1 -1 1zm-28.966-23.021a22.062 22.062 0 0 1 20.823 15.007 8.713 8.713 0 0 0 7.123 5.952 27.994 27.994 0 0 0 -46.324-20.082 1 1 0 0 1 -1.656-.756v-2.1a4.006 4.006 0 0 0 -3.152-3.909l-2.659 17.72 17.721-2.659a4.008 4.008 0 0 0 -3.91-3.152h-.29a1 1 0 0 1 -.586-1.81 21.957 21.957 0 0 1 12.91-4.211z"/></g><g><path d="m56.149 26.529a1 1 0 0 1 -.966-.742 24 24 0 0 0 -35.183-14.57 1 1 0 0 1 -1-1.731 26 26 0 0 1 38.116 15.785 1 1 0 0 1 -.708 1.224.971.971 0 0 1 -.259.034z"/><path d="m32 58a26.026 26.026 0 0 1 -25.116-19.271 1 1 0 0 1 1.933-.516 24 24 0 0 0 35.183 14.57 1 1 0 0 1 1 1.731 25.989 25.989 0 0 1 -13 3.486z"/><path d="m51 51a3 3 0 1 1 3-3 3 3 0 0 1 -3 3zm0-4a1 1 0 1 0 1 1 1 1 0 0 0 -1-1z"/><path d="m13 19a3 3 0 1 1 3-3 3 3 0 0 1 -3 3zm0-4a1 1 0 1 0 1 1 1 1 0 0 0 -1-1z"/></g></g></g></g></svg>